<svg aria-hidden="true" style="position: absolute; width: 0; height: 0; overflow: hidden;" version="1.1" xmlns="http://www.w3.org/2000/svg" xmlns:xlink="http://www.w3.org/1999/xlink">
<defs>
<symbol id="ALARM" viewBox="0 0 32 32">
<title>ALARM</title>
<path d="M30.74 10c-1.624-3.713-4.527-6.616-8.139-8.2l-0.101-0.040c1-0.79 2.25-1.26 3.63-1.26 3.24 0 5.87 2.63 5.87 5.87 0 1.37-0.47 2.63-1.26 3.63zM30.5 16.5c0 3.85-1.51 7.34-3.96 9.94l2.030 2.030c0.26 0.27 0.43 0.64 0.43 1.050 0 0.82-0.66 1.48-1.48 1.48-0.41 0-0.78-0.17-1.050-0.43l-2.18-2.18c-2.312 1.632-5.188 2.609-8.292 2.609-3.098 0-5.969-0.973-8.324-2.63l0.046 0.031-2.16 2.16c-0.271 0.271-0.646 0.439-1.060 0.439-0.828 0-1.499-0.671-1.499-1.499 0-0.414 0.168-0.789 0.439-1.060l2.010-2.010c-2.44-2.6-3.95-6.080-3.95-9.93 0-8.010 6.49-14.5 14.5-14.5s14.5 6.49 14.5 14.5zM16 5c-6.35 0-11.5 5.15-11.5 11.5s5.15 11.5 11.5 11.5 11.5-5.15 11.5-11.5-5.15-11.5-11.5-11.5zM22 18h-6c-0.83 0-1.5-0.67-1.5-1.5v-8c0-0.83 0.67-1.5 1.5-1.5s1.5 0.67 1.5 1.5v6.5h4.5c0.83 0 1.5 0.67 1.5 1.5s-0.67 1.5-1.5 1.5zM1.29 10.21c-0.804-1.007-1.29-2.299-1.29-3.705 0-0.002 0-0.004 0-0.005v0c0-3.31 2.69-6 6-6 1.4 0 2.69 0.48 3.71 1.29-3.8 1.651-6.769 4.62-8.38 8.317l-0.040 0.103z"></path>
</symbol>
<symbol id="BOOK-2" viewBox="0 0 32 32">
<title>BOOK-2</title>
<path d="M31.060 25.89l-14.47 5.99c-0.18 0.080-0.38 0.12-0.59 0.12s-0.41-0.040-0.59-0.12l-14.47-5.99c-0.55-0.22-0.94-0.76-0.94-1.39v-23c0-0.83 0.67-1.5 1.5-1.5 0.2 0 0.4 0.040 0.57 0.11h0.010c0 0.010 0 0.010 0.010 0.010l13.91 5.76 13.91-5.76s0.010 0 0.010-0.010h0.010c0.17-0.070 0.37-0.11 0.57-0.11 0.83 0 1.5 0.67 1.5 1.5v23c0 0.63-0.39 1.17-0.94 1.39zM14.5 8.5l-11.5-4.76v19.76l11.5 4.76v-19.76zM29 3.74l-11.5 4.76v19.76l11.5-4.76v-19.76zM19.88 10.63l5.5-2.5c0.19-0.080 0.4-0.13 0.62-0.13 0.83 0 1.5 0.67 1.5 1.5 0 0.61-0.36 1.13-0.88 1.37l-5.5 2.5c-0.19 0.080-0.4 0.13-0.62 0.13-0.83 0-1.5-0.67-1.5-1.5 0-0.61 0.36-1.13 0.88-1.37zM19.88 16.13l5.5-2.5c0.19-0.080 0.4-0.13 0.62-0.13 0.83 0 1.5 0.67 1.5 1.5 0 0.61-0.36 1.13-0.88 1.37l-5.5 2.5v-0.010c-0.19 0.090-0.4 0.14-0.62 0.14-0.83 0-1.5-0.67-1.5-1.5 0-0.61 0.36-1.13 0.88-1.37zM19.88 21.63l5.5-2.5c0.19-0.080 0.4-0.13 0.62-0.13 0.83 0 1.5 0.67 1.5 1.5 0 0.61-0.36 1.13-0.88 1.37l-5.5 2.5c-0.19 0.080-0.4 0.13-0.62 0.13-0.83 0-1.5-0.67-1.5-1.5 0-0.61 0.36-1.13 0.88-1.37zM6 8c0.22 0 0.43 0.050 0.62 0.13l5.5 2.5c0.52 0.24 0.88 0.76 0.88 1.37 0 0.83-0.67 1.5-1.5 1.5-0.224-0.002-0.437-0.049-0.63-0.134l0.010 0.004-5.5-2.5c-0.52-0.24-0.88-0.76-0.88-1.37 0-0.83 0.67-1.5 1.5-1.5zM6 13.5c0.22 0 0.43 0.050 0.62 0.13l5.5 2.5c0.52 0.24 0.88 0.76 0.88 1.37 0 0.83-0.67 1.5-1.5 1.5-0.22 0-0.43-0.050-0.62-0.14v0.010l-5.5-2.5c-0.52-0.24-0.88-0.76-0.88-1.37 0-0.83 0.67-1.5 1.5-1.5zM6 19c0.22 0 0.43 0.050 0.62 0.13l5.5 2.5c0.52 0.24 0.88 0.76 0.88 1.37 0 0.83-0.67 1.5-1.5 1.5-0.224-0.002-0.437-0.049-0.63-0.134l0.010 0.004-5.5-2.5c-0.52-0.24-0.88-0.76-0.88-1.37 0-0.83 0.67-1.5 1.5-1.5z"></path>
</symbol>
<symbol id="COMPUTER-_-OK" viewBox="0 0 32 32">
<title>COMPUTER-_-OK</title>
<path d="M30 25h-9.5v2.5l2 2v0.5h-13v-0.5l2-2v-2.5h-9.5c-0.83 0-1.5-0.67-1.5-1.5v-20c0-0.83 0.67-1.5 1.5-1.5h28c0.83 0 1.5 0.67 1.5 1.5v20c0 0.83-0.67 1.5-1.5 1.5zM29.5 4h-27v17h27v-17zM13 11c0.41 0 0.79 0.17 1.060 0.44l0.94 0.94 2.94-2.94c0.271-0.271 0.646-0.439 1.060-0.439 0.828 0 1.499 0.671 1.499 1.499 0 0.414-0.168 0.789-0.439 1.060l-4 4c-0.27 0.27-0.65 0.44-1.060 0.44s-0.79-0.17-1.060-0.44l-2-2c-0.273-0.271-0.442-0.647-0.442-1.062 0-0.827 0.671-1.498 1.498-1.498 0.001 0 0.002 0 0.004 0h-0z"></path>
</symbol>
<symbol id="HOME" viewBox="0 0 32 32">
<title>HOME</title>
<path d="M32 17c0 0.83-0.67 1.5-1.5 1.5-0.4 0-0.75-0.16-1.020-0.41v0.010l-13.48-13.48-13.45 13.45c-0.27 0.262-0.638 0.424-1.045 0.424-0.828 0-1.499-0.671-1.499-1.499 0-0.421 0.174-0.802 0.454-1.075l14.46-14.46c0.27-0.28 0.66-0.46 1.080-0.46h0.090c0.020 0 0.050 0.010 0.070 0.010 0.37 0.040 0.7 0.21 0.94 0.47l5.9 5.9v-1.38c0-0.83 0.67-1.5 1.5-1.5s1.5 0.67 1.5 1.5v4.38l5.6 5.6h-0.010c0.25 0.27 0.41 0.62 0.41 1.020zM29 19.5v10.5c0 0.83-0.67 1.5-1.5 1.5h-3v-12h-6v12h-14c-0.83 0-1.5-0.67-1.5-1.5v-10.5l13-13 13 13zM13.5 19.5h-6v6h6v-6z"></path>
</symbol>
<symbol id="IMAGE" viewBox="0 0 32 32">
<title>IMAGE</title>
<path d="M30.5 32h-29c-0.83 0-1.5-0.67-1.5-1.5v-29c0-0.83 0.67-1.5 1.5-1.5h29c0.83 0 1.5 0.67 1.5 1.5v29c0 0.83-0.67 1.5-1.5 1.5zM29 3h-26v26h26v-26zM6.5 4.5h5.5c0.83 0 1.5 0.67 1.5 1.5s-0.67 1.5-1.5 1.5h-4.5v4.5c0 0.83-0.67 1.5-1.5 1.5s-1.5-0.67-1.5-1.5v-7.5h2zM4.5 20c0-0.83 0.67-1.5 1.5-1.5s1.5 0.67 1.5 1.5v4.5h4.5c0.83 0 1.5 0.67 1.5 1.5s-0.67 1.5-1.5 1.5h-7.5v-7.5zM20 4.5h7.5v7.5c0 0.83-0.67 1.5-1.5 1.5s-1.5-0.67-1.5-1.5v-4.5h-4.5c-0.83 0-1.5-0.67-1.5-1.5s0.67-1.5 1.5-1.5zM20 24.5h4.5v-4.5c0-0.83 0.67-1.5 1.5-1.5s1.5 0.67 1.5 1.5v7.5h-7.5c-0.83 0-1.5-0.67-1.5-1.5s0.67-1.5 1.5-1.5z"></path>
</symbol>
<symbol id="LINE-GRAPH" viewBox="0 0 32 32">
<title>LINE-GRAPH</title>
<path d="M30.5 32h-29c-0.83 0-1.5-0.67-1.5-1.5v-29c0-0.83 0.67-1.5 1.5-1.5h29c0.83 0 1.5 0.67 1.5 1.5v29c0 0.83-0.67 1.5-1.5 1.5zM29 3h-26v26h26v-26zM5.22 16.24h-0.010l4-2.5h0.010c0.22-0.14 0.49-0.22 0.78-0.22 0.31 0 0.6 0.090 0.84 0.25h0.010l6.63 4.42 7.63-5.4c0.25-0.18 0.56-0.28 0.89-0.28 0.827 0 1.498 0.671 1.498 1.498 0 0.496-0.241 0.937-0.613 1.209l-0.004 0.003-8.5 6c-0.25 0.18-0.55 0.29-0.88 0.29-0.32 0-0.62-0.11-0.86-0.28l-6.66-4.43-3.13 1.95c-0.24 0.17-0.54 0.27-0.85 0.27-0.002 0-0.003 0-0.005 0-0.827 0-1.498-0.671-1.498-1.498 0-0.541 0.287-1.015 0.717-1.278l0.007-0.004z"></path>
</symbol>
<symbol id="facebook" viewBox="0 0 15 32">
<title>facebook</title>
<path d="M14.88 0.246v5.071s-3.742-0.369-4.677 1.058c-0.505 0.788-0.209 3.077-0.246 4.726h4.948c-0.418 1.92-0.714 3.225-1.022 4.898h-3.963v15.754h-6.868v-15.692h-2.917v-4.96h2.88c0.16-3.631 0.209-7.225 2.006-9.046 2.031-2.055 3.963-1.809 9.858-1.809z"></path>
</symbol>
<symbol id="instagram" viewBox="0 0 32 32">
<title>instagram</title>
<path d="M27.938 31.754h-23.631c-2.178 0-3.938-1.76-3.938-3.938v-23.631c0-2.178 1.76-3.938 3.938-3.938h23.631c2.178 0 3.938 1.76 3.938 3.938v23.631c0 2.178-1.76 3.938-3.938 3.938zM16.123 9.895c-2.462 0-4.566 1.452-5.538 3.545-0.012 0.025-0.025 0.049-0.025 0.062-0.062 0.135-0.111 0.271-0.16 0.406l-0.074 0.185c-0.049 0.135-0.086 0.283-0.123 0.418-0.012 0.062-0.037 0.135-0.049 0.197-0.025 0.148-0.049 0.295-0.074 0.455 0 0.062-0.025 0.123-0.025 0.185-0.022 0.196-0.035 0.423-0.035 0.652 0 3.371 2.732 6.104 6.103 6.105h0c3.371-0.001 6.103-2.734 6.103-6.105 0-0.23-0.013-0.457-0.037-0.68l0.002 0.027c0-0.062-0.025-0.123-0.025-0.185-0.025-0.16-0.049-0.308-0.074-0.455-0.025-0.062-0.037-0.135-0.049-0.197-0.037-0.135-0.074-0.283-0.123-0.418l-0.074-0.185c-0.049-0.135-0.098-0.271-0.16-0.406 0-0.012-0.012-0.037-0.025-0.062-0.972-2.092-3.077-3.545-5.538-3.545zM28.332 5.366c0-0.874-0.702-1.575-1.575-1.575h-3.151c-0.874 0-1.575 0.702-1.575 1.575v3.151c0 0.874 0.702 1.575 1.575 1.575h3.151c0.874 0 1.575-0.702 1.575-1.575v-3.151zM28.332 13.44h-2.905c0.219 0.766 0.345 1.646 0.345 2.556 0 5.329-4.32 9.649-9.649 9.649s-9.649-4.32-9.649-9.649c0-0.909 0.126-1.79 0.361-2.624l-0.016 0.068h-2.905v13.194c0 0.874 0.702 1.575 1.575 1.575h21.268c0.874 0 1.575-0.702 1.575-1.575v-13.194z"></path>
</symbol>
<symbol id="pinterest" viewBox="0 0 25 32">
<title>pinterest</title>
<path d="M9.908 20.738c-0.258 1.034-0.517 2.105-0.788 3.151-0.258 1.046-0.492 2.092-0.874 3.040-0.64 1.588-1.452 3.102-2.523 4.345-0.702 0.812-0.554 0.492-0.763 0.443-0.172-0.037-0.185-0.197-0.209-0.418-0.172-1.255-0.062-2.708 0-4.111 0.074-1.612 0.418-2.942 0.726-4.283 0.603-2.535 1.169-5.022 1.772-7.582 0.037-0.172 0.148-0.455 0.111-0.542-0.271-0.714-0.455-1.354-0.529-2.092-0.086-0.862-0.025-1.662 0.172-2.4 0.332-1.305 1.12-2.449 2.326-2.88 0.775-0.258 1.625-0.135 2.142 0.172 0.529 0.308 0.898 0.812 1.058 1.526 0.185 0.763 0.049 1.662-0.098 2.326-0.32 1.502-0.751 2.634-1.145 4.074-0.197 0.726-0.418 1.465-0.234 2.228 0.16 0.714 0.529 1.206 1.046 1.575 0.517 0.382 1.132 0.591 1.994 0.566 1.514-0.062 2.56-1.022 3.262-1.932 1.12-1.465 1.809-3.434 2.068-5.772 0.074-0.751 0.135-1.625 0.086-2.474-0.111-1.588-0.603-2.855-1.391-3.84-0.793-0.968-1.841-1.699-3.043-2.091l-0.046-0.013c-1.28-0.418-3.052-0.554-4.615-0.283-2.855 0.48-4.862 2.105-6.043 4.345-0.628 1.169-1.034 2.523-1.034 4.197 0 1.292 0.32 2.289 0.837 3.077 0.16 0.246 0.394 0.455 0.554 0.738 0.234 0.394-0.025 0.997-0.148 1.428-0.135 0.529-0.148 1.243-0.751 1.255-0.258 0.012-0.578-0.172-0.788-0.295-1.612-0.886-2.585-2.498-2.978-4.603-0.246-1.268-0.246-2.745 0-3.975 0.234-1.194 0.665-2.289 1.145-3.175 1.014-1.839 2.46-3.328 4.206-4.365l0.053-0.029c1.378-0.812 2.929-1.378 4.812-1.649 0.628-0.098 1.268-0.135 1.969-0.16 2.055-0.098 3.926 0.357 5.329 0.985 1.489 0.665 2.671 1.551 3.668 2.646 1.034 1.132 1.785 2.437 2.265 4.074 0.246 0.849 0.48 1.76 0.48 2.818 0 1.046-0.222 1.982-0.369 2.917-0.591 3.471-2.24 6.326-4.726 7.938-0.603 0.394-1.329 0.763-2.166 0.997-0.812 0.246-1.748 0.418-2.757 0.357-0.972-0.074-1.772-0.332-2.437-0.714s-1.231-0.837-1.625-1.538z"></path>
</symbol>
<symbol id="twitter" viewBox="0 0 38 32">
<title>twitter</title>
<path d="M25.469 0.873c2.967-0.058 4.538 1.033 6.036 2.4 1.28-0.116 2.938-0.829 3.913-1.324l0.96-0.524c-0.567 1.513-1.324 2.691-2.487 3.593-0.247 0.204-0.509 0.465-0.829 0.596v0.015c1.658-0.015 3.025-0.756 4.32-1.164v0.015c-0.684 1.076-1.6 2.182-2.589 2.967-0.393 0.32-0.8 0.64-1.193 0.945 0.015 1.76-0.029 3.433-0.349 4.916-1.92 8.567-6.967 14.385-14.967 16.887-2.88 0.887-7.52 1.265-10.807 0.451-1.644-0.407-3.113-0.873-4.495-1.469-0.771-0.335-1.484-0.713-2.167-1.12-0.218-0.131-0.451-0.276-0.669-0.407 0.742 0.015 1.615 0.218 2.444 0.087 0.742-0.116 1.484-0.087 2.182-0.233 1.731-0.378 3.258-0.887 4.582-1.658 0.64-0.378 1.615-0.815 2.065-1.353-0.858 0.015-1.629-0.189-2.269-0.407-2.473-0.873-3.913-2.487-4.844-4.887 0.742 0.073 2.909 0.276 3.404-0.16-0.945-0.044-1.847-0.596-2.487-1.004-1.993-1.236-3.622-3.316-3.607-6.531 0.262 0.116 0.524 0.247 0.785 0.364 0.495 0.218 1.004 0.335 1.6 0.451 0.262 0.058 0.756 0.204 1.047 0.087h-0.044c-0.378-0.436-1.004-0.742-1.396-1.222-1.265-1.585-2.473-4.029-1.716-6.924 0.204-0.742 0.509-1.396 0.829-1.993 0.015 0 0.029 0.015 0.029 0.015 0.16 0.32 0.48 0.538 0.698 0.8 0.655 0.815 1.455 1.542 2.269 2.182 2.793 2.182 5.309 3.52 9.338 4.509 1.018 0.247 2.211 0.451 3.433 0.451-0.349-1.004-0.233-2.618 0.029-3.593 0.684-2.429 2.167-4.189 4.335-5.12 0.509-0.233 1.091-0.393 1.687-0.524 0.32-0.044 0.625-0.073 0.931-0.116z"></path>
</symbol>
<symbol id="MAGNIFYING-GLASS" viewBox="0 0 32 32">
<title>MAGNIFYING-GLASS</title>
<path d="M30.791 26.631c0.533 0.533 0.853 1.262 0.853 2.080 0 1.618-1.316 2.933-2.933 2.933-0.818 0-1.547-0.338-2.080-0.853l-8.587-8.604c-1.742 1.031-3.787 1.636-5.956 1.636-6.48 0-11.733-5.253-11.733-11.733v0c0-6.489 5.244-11.733 11.733-11.733s11.733 5.244 11.733 11.733c0 2.169-0.604 4.196-1.636 5.956l8.604 8.587zM12.089 3.289c-4.853 0-8.8 3.947-8.8 8.8s3.947 8.8 8.8 8.8 8.8-3.947 8.8-8.8-3.947-8.8-8.8-8.8z"></path>
</symbol>
<symbol id="SHOPPING-CART" viewBox="0 0 38 32">
<title>SHOPPING-CART</title>
<path d="M37.824 7.808l-5.291 11.733c-0.256 0.576-0.811 1.003-1.493 1.045l-15.189 1.003 0.875 2.517h16.555c1.941 0 3.52 1.579 3.52 3.52s-1.579 3.52-3.52 3.52c-1.941 0-3.52-1.579-3.52-3.52h-16.427c0 1.941-1.579 3.52-3.52 3.52s-3.52-1.579-3.52-3.52c0-1.941 1.579-3.52 3.52-3.52h3.179l-6.784-19.371h-4.032c-0.935-0.047-1.675-0.817-1.675-1.76s0.74-1.713 1.671-1.76l0.004-0h5.291c0.768 0 1.408 0.512 1.664 1.195l1.024 2.923h26.048c0.003-0 0.006-0 0.010-0 0.973 0 1.762 0.789 1.762 1.762 0 0.258-0.055 0.503-0.155 0.724l0.004-0.011zM11.392 8.853l3.243 9.301 15.125-1.024 3.733-8.277h-22.101z"></path>
</symbol>
</defs>
</svg>
