<svg xmlns="http://www.w3.org/2000/svg" viewBox="0 0 16 17" width="16" height="17">
	<style>
		tspan { white-space:pre }
		.shp0 { fill: #ffffff } 
	</style>
	<g id="Partners">
		<g id="Partner 3">
			<path id="Shape 153" class="shp0" d="M13.27 14.43C12.67 14.39 11.98 14.35 11.23 14.33C11.91 13.74 12.49 12.97 12.91 12.08C13.11 12.29 13.37 12.44 13.66 12.51C13.78 12.54 13.91 12.56 14.04 12.56C14.33 12.56 14.62 12.48 14.87 12.32C15.24 12.1 15.5 11.74 15.6 11.32C15.7 10.9 15.63 10.46 15.41 10.1C15.03 9.48 14.31 9.21 13.65 9.37C13.68 9.08 13.7 8.79 13.7 8.49C13.7 8.18 13.45 7.93 13.14 7.93L2.79 7.93C2.48 7.93 2.23 8.18 2.23 8.49C2.23 10.91 3.21 13.04 4.69 14.33C3.95 14.35 3.26 14.39 2.66 14.43C0.57 14.58 -0.04 14.72 -0.04 15.36C-0.04 16.01 0.57 16.15 2.66 16.3C4.08 16.4 5.96 16.45 7.97 16.45C9.97 16.45 11.85 16.4 13.27 16.3C15.36 16.15 15.97 16.01 15.97 15.36C15.97 14.72 15.36 14.58 13.27 14.43ZM13.54 10.14C13.54 10.13 13.55 10.13 13.55 10.13C13.99 9.86 14.57 10 14.84 10.45C14.97 10.66 15 10.91 14.95 11.16C14.89 11.4 14.74 11.61 14.52 11.74C14.31 11.87 14.06 11.91 13.82 11.85C13.57 11.79 13.37 11.64 13.24 11.43C13.23 11.41 13.21 11.4 13.2 11.38C13.34 10.99 13.45 10.57 13.54 10.14ZM3.37 9.06L12.56 9.06C12.34 12.1 10.36 14.48 7.97 14.48C5.57 14.48 3.59 12.1 3.37 9.06ZM6.93 6.78L6.97 6.78C7.1 6.78 7.24 6.71 7.32 6.6C7.42 6.48 7.44 6.32 7.39 6.17C7.38 6.16 6.96 4.92 7.51 3.88C8.1 2.89 8.3 2.09 8.08 1.51C7.89 0.99 7.47 0.85 7.42 0.84C7.18 0.77 6.93 0.91 6.86 1.14C6.79 1.38 6.93 1.64 7.14 1.7C7.15 1.7 7.21 1.73 7.24 1.83C7.29 1.97 7.35 2.4 6.76 3.39L6.74 3.42C6.69 3.5 6.64 3.58 6.59 3.66C5.91 4.71 5.71 5.54 5.98 6.12C6.21 6.59 6.68 6.76 6.93 6.78ZM9.31 6.86L9.35 6.86C9.47 6.86 9.6 6.8 9.68 6.7C9.77 6.58 9.79 6.43 9.74 6.29C9.74 6.29 9.5 5.58 9.81 5.01C10.2 4.35 10.32 3.84 10.17 3.43C10.03 3.05 9.73 2.95 9.66 2.93C9.45 2.86 9.2 3 9.14 3.21C9.11 3.32 9.12 3.44 9.17 3.54C9.23 3.64 9.32 3.71 9.42 3.74C9.4 3.73 9.38 3.73 9.38 3.73C9.39 3.75 9.45 3.96 9.1 4.55L9.07 4.59C9.05 4.63 9.02 4.67 8.99 4.72C8.54 5.42 8.41 5.96 8.61 6.38C8.77 6.7 9.08 6.84 9.31 6.86Z" />
		</g>
	</g>
</svg>