<svg xmlns="http://www.w3.org/2000/svg" viewBox="0 0 16 17" width="16" height="17">
	<style>
		tspan { white-space:pre }
		.shp0 { fill: #ffffff } 
	</style>
	<g id="Partners">
		<g id="Partner 1">
			<path id="Shape 128" class="shp0" d="M14.62 4.15L8.94 4.15L11.18 1.47C11.21 1.47 11.24 1.49 11.28 1.49C11.65 1.49 11.95 1.19 11.95 0.82C11.95 0.45 11.65 0.15 11.28 0.15C10.91 0.15 10.61 0.45 10.61 0.82C10.61 0.9 10.63 0.98 10.66 1.05L8.07 4.15L7.82 4.15L5.23 1.05C5.26 0.98 5.28 0.9 5.28 0.82C5.28 0.45 4.98 0.15 4.61 0.15C4.24 0.15 3.94 0.45 3.94 0.82C3.94 1.19 4.24 1.49 4.61 1.49C4.65 1.49 4.68 1.47 4.71 1.47L6.96 4.15L1.28 4.15C0.54 4.15 -0.06 4.75 -0.06 5.48L-0.06 14.8C-0.06 15.53 0.54 16.13 1.28 16.13L14.62 16.13C15.35 16.13 15.95 15.53 15.95 14.8L15.95 5.48C15.95 4.75 15.35 4.15 14.62 4.15ZM11.95 13.47C11.95 14.2 11.35 14.8 10.61 14.8L2.61 14.8C1.87 14.8 1.28 14.2 1.28 13.47L1.28 6.81C1.28 6.08 1.87 5.48 2.61 5.48L10.61 5.48C11.35 5.48 11.95 6.08 11.95 6.81L11.95 13.47ZM13.91 7.52C13.39 7.52 12.96 7.09 12.96 6.57C12.96 6.04 13.39 5.62 13.91 5.62C14.44 5.62 14.87 6.04 14.87 6.57C14.87 7.09 14.44 7.52 13.91 7.52Z" />
		</g>
	</g>
</svg>